<svg xmlns="http://www.w3.org/2000/svg" viewBox="0 0 153 153"><defs><style>.cls-1{fill:#fff;stroke:#d4302f;stroke-miterlimit:10;stroke-width:3px;}.cls-2{fill:#d4302f;}</style></defs><title>add-photo</title><g id="Слой_2" data-name="Слой 2"><g id="Слой_1-2" data-name="Слой 1"><circle class="cls-1" cx="76.5" cy="76.5" r="75"/><path class="cls-2" d="M74.5,67.3A10.8,10.8,0,1,0,85.3,78.1,10.8,10.8,0,0,0,74.5,67.3Zm28.8-10.8H94.66a3.21,3.21,0,0,1-2.84-2l-2.23-6.7a3.21,3.21,0,0,0-2.84-2H62.26a3.21,3.21,0,0,0-2.84,2l-2.23,6.7a3.21,3.21,0,0,1-2.84,2H45.7a7.22,7.22,0,0,0-7.2,7.2V96.1a7.22,7.22,0,0,0,7.2,7.2h57.6a7.22,7.22,0,0,0,7.2-7.2V63.7A7.22,7.22,0,0,0,103.3,56.5ZM74.5,96.1a18,18,0,1,1,18-18A18,18,0,0,1,74.5,96.1Zm26.28-27.37a2.52,2.52,0,1,1,2.52-2.52A2.52,2.52,0,0,1,100.78,68.73Z"/></g></g></svg>