<svg xmlns="http://www.w3.org/2000/svg" viewBox="0 0 150 150"><defs><style>.cls-1{fill:#fff;}.cls-2{fill:#7da5c6;}</style></defs><title>audio</title><g id="Слой_2" data-name="Слой 2"><g id="Слой_1-2" data-name="Слой 1"><circle class="cls-1" cx="75" cy="75" r="75"/><path class="cls-2" d="M76,90.24A13.9,13.9,0,0,0,89.91,76.38V54.19A13.85,13.85,0,0,0,66.25,44.4a13.35,13.35,0,0,0-4.07,9.79V76.38A13.9,13.9,0,0,0,76,90.24Z"/><path class="cls-2" d="M100.18,68.88a2.77,2.77,0,0,0-4.72,1.95v5.55A19.45,19.45,0,0,1,76,95.79,19.45,19.45,0,0,1,56.63,76.38V70.83a2.77,2.77,0,0,0-5.55,0v5.55a25,25,0,0,0,22.18,24.78v5.72H62.18a2.77,2.77,0,0,0,0,5.55H89.91a2.77,2.77,0,0,0,0-5.55H78.82v-5.72A25,25,0,0,0,101,76.38V70.83A2.66,2.66,0,0,0,100.18,68.88Z"/><path class="cls-2" d="M76,90.24A13.9,13.9,0,0,0,89.91,76.38V54.19A13.85,13.85,0,0,0,66.25,44.4a13.35,13.35,0,0,0-4.07,9.79V76.38A13.9,13.9,0,0,0,76,90.24Z"/><path class="cls-2" d="M100.18,68.88a2.77,2.77,0,0,0-4.72,1.95v5.55A19.45,19.45,0,0,1,76,95.79,19.45,19.45,0,0,1,56.63,76.38V70.83a2.77,2.77,0,0,0-5.55,0v5.55a25,25,0,0,0,22.18,24.78v5.72H62.18a2.77,2.77,0,0,0,0,5.55H89.91a2.77,2.77,0,0,0,0-5.55H78.82v-5.72A25,25,0,0,0,101,76.38V70.83A2.66,2.66,0,0,0,100.18,68.88Z"/></g></g></svg>