<svg xmlns="http://www.w3.org/2000/svg" viewBox="0 0 318.13 414.52"><defs><style>.cls-1{fill:#d4302f;}.cls-2{fill:#fff;}</style></defs><title>logo</title><g id="Слой_2" data-name="Слой 2"><g id="play"><path class="cls-1" d="M308.68,329.94,208.52,387.77a18.9,18.9,0,0,1-28.36-16.37V255.74a18.9,18.9,0,0,1,28.36-16.37L308.68,297.2A18.9,18.9,0,0,1,308.68,329.94Z"/></g><g id="Слой_1-2" data-name="Слой 1"><path class="cls-2" d="M7.27,414.52C15.7,412,22,406.43,27.73,400c8.38-9.44,17.27-18.49,24.9-28.5,9-11.81,17.33-24.2,25.17-36.82a469.89,469.89,0,0,0,29.9-57c7.08-15.88,13.62-32,20.49-48,3.31-7.69,5.73-15.82,11-22.55,3.61-4.6,7.82-8.06,14.19-7.62,2.22.15,3.11,1,3.25,3.33.61,10,5.67,14.4,15.62,14.21a5.22,5.22,0,0,1,3.56,1.49,21.07,21.07,0,0,1,5.75,14.59,12.49,12.49,0,0,0,.44,3.31c2.15,7.85,10.87,13.54,18.71,14.3,5.43.52,9.89-2.5,10.63-7a33.63,33.63,0,0,0,.36-6.44c-.26-8.44-4.51-15.32-9.08-21.95-3.38-4.9-8.28-8-13.95-9.88-4-1.35-5-2.77-5.09-7.09,0-2.68.15-5.36.12-8a4.72,4.72,0,0,1,2.82-4.53c10.81-6,21.58-12,31.26-19.86a159.47,159.47,0,0,0,24.41-24.29A116.14,116.14,0,0,0,262,105.15a88.56,88.56,0,0,0,3.78-14c.68-4.5.25-9.15.34-13.74.18-8.56,1.53-16.91,5.36-24.63,4.43-8.92,11.79-13.87,21.76-14.57,3.87-.27,7.78,0,11.67-.07a3,3,0,0,0,2.34-1.1c.25-.57-.51-1.61-.89-2.42a3.29,3.29,0,0,0-.71-.75c-5.63-5.7-13.05-7.64-20.45-9.42a12.5,12.5,0,0,1-6.82-3.8,60.57,60.57,0,0,0-23-16c-9.11-3.6-18.71-5.08-28-3.13-15.82,3.32-26.77,13.15-32.09,28.69a14.71,14.71,0,0,1-4.91,7.35A252.61,252.61,0,0,0,152.4,74.36a292.51,292.51,0,0,0-37.59,56.5c-7.08,14-13.62,28.39-19.73,42.88-4.46,10.58-7.86,21.61-11.64,32.47-1.29,3.7-1,4.31,2.17,6.77,4,3.18,4.7,5.95,2.49,10.65-.26.55-.55,1.08-.83,1.62-5.75,11-11.6,21.86-17.22,32.88-9.75,19.11-19.51,38.21-29,57.46-9.63,19.56-19,39.25-28.34,59Q6.67,387.3,1.17,400.35c-2.5,5.92-.3,11.51,5.06,14.17H0"/><path d="M6.23,414.52c-5.36-2.66-7.55-8.25-5.06-14.17q5.49-13,11.55-25.82c9.34-19.7,18.7-39.39,28.34-59,9.48-19.24,19.24-38.35,29-57.46,5.62-11,11.47-21.92,17.22-32.88.28-.54.57-1.07.83-1.62,2.21-4.7,1.56-7.46-2.49-10.65-3.14-2.47-3.46-3.08-2.17-6.77,3.78-10.86,7.18-21.89,11.64-32.47,6.11-14.49,12.64-28.84,19.73-42.88a292.51,292.51,0,0,1,37.59-56.5,252.61,252.61,0,0,1,37.92-36.78,14.71,14.71,0,0,0,4.91-7.35c5.32-15.54,16.27-25.37,32.09-28.69,9.32-2,18.92-.48,28,3.13a60.57,60.57,0,0,1,23,16,12.5,12.5,0,0,0,6.82,3.8c7.4,1.78,14.82,3.72,20.45,9.42a3.29,3.29,0,0,1,.71.75c.38.8,1.14,1.85.89,2.42a3,3,0,0,1-2.34,1.1c-3.89.1-7.8-.2-11.67.07-10,.7-17.32,5.65-21.76,14.57-3.83,7.72-5.19,16.07-5.36,24.63-.1,4.59.33,9.24-.34,13.74a88.56,88.56,0,0,1-3.78,14,116.14,116.14,0,0,1-19.76,36.58A159.47,159.47,0,0,1,217.82,166c-9.68,7.88-20.45,13.86-31.26,19.86a4.72,4.72,0,0,0-2.82,4.53c0,2.68-.17,5.36-.12,8,.07,4.32,1,5.74,5.09,7.09,5.67,1.89,10.57,5,13.95,9.88,4.57,6.62,8.82,13.51,9.08,21.95a33.63,33.63,0,0,1-.36,6.44c-.75,4.54-5.21,7.56-10.63,7-7.84-.76-16.56-6.45-18.71-14.3a12.49,12.49,0,0,1-.44-3.31,21.07,21.07,0,0,0-5.75-14.59,5.22,5.22,0,0,0-3.56-1.49c-10,.18-15-4.26-15.62-14.21-.14-2.32-1-3.17-3.25-3.33-6.37-.44-10.58,3-14.19,7.62-5.27,6.73-7.7,14.86-11,22.55-6.87,16-13.42,32.08-20.49,48a469.89,469.89,0,0,1-29.9,57c-7.85,12.62-16.17,25-25.17,36.82-7.63,10-16.52,19.06-24.9,28.5C22,406.43,15.7,412,7.27,414.52ZM142.37,116.11l.58,1c4.4-.76,8.87-1.23,13.18-2.32,19.58-4.94,36.18-15.33,51.14-28.57,3.88-3.44,7.51-7.16,11.29-10.71.44-.42,1.47-.93,1.66-.76a3.09,3.09,0,0,1,.86,4.07c-3.29,9.65-6.07,19.51-10,28.88a142.16,142.16,0,0,1-43.78,57c-6,4.76-12.5,9-18.77,13.41-3,2.14-2.74,4.93.55,6.58a41.69,41.69,0,0,0,16.25,4c9,.6,16.67-3.2,24.24-7.28a174.78,174.78,0,0,0,36.13-25.54,128.86,128.86,0,0,0,22.09-26.37,4.25,4.25,0,0,0,.66-2.42c-.89-10.53-2.32-21-5.42-31.11-3.47-11.35-8.42-21.93-16.66-30.76a9,9,0,0,0-9.7-2.62A179.32,179.32,0,0,0,199,68.83c-21,8.66-37.94,22.56-51.83,40.35C145.47,111.4,144,113.8,142.37,116.11Zm69.66-25-.85-.43a12.14,12.14,0,0,1-1.1,1.73c-6.69,7.47-13.25,15.06-20.13,22.35C164,142.22,136.2,167.47,103.4,186.67c-.7.41-1,1.48-1.49,2.24.93.06,2,.45,2.78.14,9.15-3.65,18.51-6.88,27.33-11.22a163.23,163.23,0,0,0,62.36-53.49A168.45,168.45,0,0,0,212,93,5.07,5.07,0,0,0,212,91.14Z"/><path class="cls-2" d="M142.37,116.11c1.6-2.31,3.1-4.71,4.83-6.93C161.09,91.4,178.06,77.49,199,68.83a179.32,179.32,0,0,1,17.62-6.18,9,9,0,0,1,9.7,2.62C234.6,74.1,239.54,84.69,243,96c3.1,10.13,4.53,20.58,5.42,31.11a4.25,4.25,0,0,1-.66,2.42,128.86,128.86,0,0,1-22.09,26.37,174.78,174.78,0,0,1-36.13,25.54c-7.58,4.08-15.21,7.88-24.24,7.28a41.69,41.69,0,0,1-16.25-4c-3.29-1.65-3.57-4.44-.55-6.58,6.27-4.45,12.74-8.65,18.77-13.41a142.16,142.16,0,0,0,43.78-57c3.94-9.37,6.72-19.24,10-28.88a3.09,3.09,0,0,0-.86-4.07c-.2-.17-1.22.34-1.66.76-3.78,3.55-7.41,7.28-11.29,10.71-15,13.24-31.56,23.62-51.14,28.57-4.31,1.09-8.78,1.56-13.18,2.32Z"/><path class="cls-2" d="M212,91.14A5.07,5.07,0,0,1,212,93a168.45,168.45,0,0,1-17.63,31.39A163.23,163.23,0,0,1,132,177.84c-8.81,4.34-18.18,7.57-27.33,11.22-.78.31-1.84-.08-2.78-.14.49-.76.8-1.84,1.49-2.24,32.81-19.2,60.6-44.45,86.54-71.89,6.89-7.28,13.44-14.88,20.13-22.35a12.14,12.14,0,0,0,1.1-1.73Z"/><path d="M120.34,131.68"/><path d="M266.48,68s2-27,23-30c0,0,17,0,18-1,0,0,1-8-26-14,0,0-19-23-47-23s-41,26-41,34"/><path d="M185.48,186"/><path d="M120.34,131.68"/><path id="head" d="M193.48,34c-2.53-7.59,13-34,41-34s47,23,47,23c27,6,26,14,26,14-1,1-18,1-18,1-21,3-23,30-23,30S206.48,73,193.48,34Z"/><path d="M185.48,186"/><path class="cls-2" d="M247.19,122.69a15,15,0,0,1-2,8.74c-5.71,9.71-23.28,33.64-66.69,54.57,0,0-10,6-30-2,0,0-6-2,1-7S208.1,141.81,220,76.62a.87.87,0,0,0-1.45-.79c-8.48,8-43.81,39.3-76.09,40.17,0,0,20.16-41.29,76.49-53.3a7.91,7.91,0,0,1,6.88,1.76C231.91,69.79,244.28,85.1,247.19,122.69Z"/><path class="cls-2" d="M219,62.7a8.63,8.63,0,0,1,6.88,1.76c6.06,5.33,18.43,20.63,21.34,58.23a15,15,0,0,1-2,8.74c-5.71,9.71-23.28,33.64-66.69,54.57,0,0-10,6-30-2,0,0-20-8-3-36S196.46,65.4,219,62.7Z"/></g><g id="wing"><path d="M220.48,74s-1,58-74,105c0,0-56,41-60,35-3.72-5.58-5-9,4-29s20-74,93-143l10-7s26,12,26,27Z"/><path class="cls-2" d="M220.48,77c.15-.82-1.3-1.74-1.9-1.17-8.48,8-43.81,39.3-76.1,40.17,0,0,21.3-41.56,78-53.42l1,11.42Z"/><path class="cls-2" d="M149.48,177l-.36.27q2.32-1.54,4.55-3.09C151.74,175.48,150.3,176.42,149.48,177Z"/><path class="cls-2" d="M210.92,91.78C207.22,103,183.74,163.62,104,188a.59.59,0,0,1-.52-1c13.49-9.45,69.19-49.7,106.8-95.46A.36.36,0,0,1,210.92,91.78Z"/></g></g></svg>