<svg id="microphone" xmlns="http://www.w3.org/2000/svg" width="12.037" height="18.013" viewBox="0 0 12.037 18.013">
  <path id="Path_17" data-name="Path 17" d="M3.512,321.186a5.982,5.982,0,0,0,1.775-4.231l-1.055-.007a4.975,4.975,0,0,1-4.963,4.932,4.975,4.975,0,0,1-4.963-4.932l-1.055.007a5.982,5.982,0,0,0,1.775,4.231,5.975,5.975,0,0,0,3.716,1.727v2.072h-1.3v1.055H1.1v-1.055H-.2v-2.072a5.974,5.974,0,0,0,3.716-1.727Zm0,0" transform="translate(6.75 -308.028)" fill="#d4302f"/>
  <path id="Path_18" data-name="Path 18" d="M69.234,3.169h1.055V8.034h3.449V6.966H71.345V5.911h2.394V4.843H71.345V3.788h2.389a3.977,3.977,0,0,0-7.945,0h2.389V4.843H65.785V5.911h2.394V6.966H65.785V8.034h3.449Zm0,0" transform="translate(-63.743 0)" fill="#d4302f"/>
  <path id="Path_19" data-name="Path 19" d="M69.917,326.737a3.982,3.982,0,0,0,3.972-3.788H65.945A3.982,3.982,0,0,0,69.917,326.737Zm0,0" transform="translate(-63.899 -313.859)" fill="#d4302f"/>
</svg>
