<svg xmlns="http://www.w3.org/2000/svg" viewBox="0 0 150 150"><defs><style>.cls-1{fill:#fff;}.cls-2{fill:#7da5c6;}</style></defs><title>location</title><g id="Слой_2" data-name="Слой 2"><g id="Слой_1-2" data-name="Слой 1"><circle class="cls-1" cx="75" cy="75" r="75"/><path class="cls-2" d="M75,42A26.1,26.1,0,0,0,48.92,68.08c0,17.84,23.33,44,24.33,45.15a2.35,2.35,0,0,0,3.49,0c1-1.11,24.33-27.3,24.33-45.15A26.11,26.11,0,0,0,75,42Zm0,39.19A13.12,13.12,0,1,1,88.12,68.08,13.13,13.13,0,0,1,75,81.19Z"/><path class="cls-2" d="M75,42A26.1,26.1,0,0,0,48.92,68.08c0,17.84,23.33,44,24.33,45.15a2.35,2.35,0,0,0,3.49,0c1-1.11,24.33-27.3,24.33-45.15A26.11,26.11,0,0,0,75,42Zm0,39.19A13.12,13.12,0,1,1,88.12,68.08,13.13,13.13,0,0,1,75,81.19Z"/></g></g></svg>