<svg xmlns="http://www.w3.org/2000/svg" viewBox="4990.701 7282.7 62.599 62.599">
  <defs>
    <style>
      .cls-1 {
        fill: #d4302f;
      }
    </style>
  </defs>
  <g id="problem" transform="translate(4990.701 7282.7)">
    <path id="Path_27" data-name="Path 27" class="cls-1" d="M53.431,9.167A31.142,31.142,0,0,0,31.3,0a31.871,31.871,0,0,0-3.237.166A31.3,31.3,0,0,0,0,31.3,31.069,31.069,0,0,0,7.909,52.1L.537,59.468a1.834,1.834,0,1,0,2.593,2.594L10.5,54.689A31.3,31.3,0,0,0,62.6,31.3,31.094,31.094,0,0,0,53.431,9.167ZM31.3,58.931A27.631,27.631,0,1,1,58.931,31.3,27.663,27.663,0,0,1,31.3,58.931Z"/>
    <path id="Path_28" data-name="Path 28" class="cls-1" d="M242.834,128.535A1.834,1.834,0,0,0,241,130.369v15.714a1.834,1.834,0,1,0,3.668,0V130.369A1.834,1.834,0,0,0,242.834,128.535Z" transform="translate(-211.535 -112.82)"/>
    <circle id="Ellipse_9" data-name="Ellipse 9" class="cls-1" cx="1.834" cy="1.834" r="1.834" transform="translate(29.465 43.216)"/>
  </g>
</svg>
