<svg xmlns="http://www.w3.org/2000/svg" viewBox="0 0 150 150"><defs><style>.cls-1{fill:#fff;}.cls-2{fill:#7da5c6;}</style></defs><title>website</title><g id="Слой_2" data-name="Слой 2"><g id="Слой_1-2" data-name="Слой 1"><circle class="cls-1" cx="75" cy="75" r="75"/><path class="cls-2" d="M53,52.45a36.6,36.6,0,0,0,3.15,2.17c-.55,1.33-1,2.74-1.48,4.19h4.46c.25-.74.5-1.5.79-2.21a35.93,35.93,0,0,0,6.43,2.21H83.64a35.1,35.1,0,0,0,6.5-2.25c.29.72.53,1.49.79,2.25h4.37a42.93,42.93,0,0,0-1.48-4.19A34.52,34.52,0,0,0,97,52.45a31.71,31.71,0,0,1,5,6.36h6.22a36.93,36.93,0,0,0-66.45,0H48A31.67,31.67,0,0,1,53,52.45Zm40.72-2.72c-.57.41-1.14.81-1.73,1.18a31.55,31.55,0,0,0-2.41-3.81A30.59,30.59,0,0,1,93.75,49.73ZM88.4,52.85a32.25,32.25,0,0,1-5.77,2,51,51,0,0,0-2.49-10.8C83.34,45.7,86.17,48.76,88.4,52.85ZM74.58,43.5l.42,0,.42,0c1,1.66,2.23,5.8,3.13,12.09a27.91,27.91,0,0,1-7.1,0C72.35,49.3,73.57,45.16,74.58,43.5Zm-4.74.65a51.39,51.39,0,0,0-2.46,10.74,32.18,32.18,0,0,1-5.67-2C63.93,48.85,66.72,45.78,69.85,44.15Zm-9.45,3A33.26,33.26,0,0,0,58,50.91c-.59-.37-1.16-.77-1.73-1.17A30.52,30.52,0,0,1,60.39,47.1Z"/><path class="cls-2" d="M97,97.55a37.52,37.52,0,0,0-3.15-2.18c.55-1.33,1-2.73,1.48-4.19H90.94c-.25.76-.5,1.53-.79,2.25a35.64,35.64,0,0,0-6.51-2.25H66.37a36.09,36.09,0,0,0-6.42,2.21c-.29-.71-.53-1.47-.79-2.21H54.7a44,44,0,0,0,1.48,4.19A36.73,36.73,0,0,0,53,97.55a31.55,31.55,0,0,1-5-6.36H41.79a36.92,36.92,0,0,0,66.45,0H102A31.82,31.82,0,0,1,97,97.55Zm-40.72,2.72c.57-.41,1.14-.81,1.73-1.17a33.23,33.23,0,0,0,2.41,3.8A31,31,0,0,1,56.25,100.27Zm5.45-3.17a32.73,32.73,0,0,1,5.67-2,51.53,51.53,0,0,0,2.46,10.74C66.72,104.22,63.93,101.15,61.71,97.11Zm13.72,9.39-.42,0-.42,0c-1-1.66-2.23-5.8-3.13-12.09a27.65,27.65,0,0,1,7.1,0C77.65,100.7,76.44,104.84,75.43,106.5Zm4.72-.58a51,51,0,0,0,2.49-10.8,32.44,32.44,0,0,1,5.77,2C86.17,101.24,83.34,104.3,80.14,105.92Zm9.47-3A32.49,32.49,0,0,0,92,99.09c.59.37,1.17.77,1.73,1.18A30.58,30.58,0,0,1,89.61,102.9Z"/><path class="cls-2" d="M49.09,82.35l1.47-5.17a34.21,34.21,0,0,0,1-4.57h.06c.3,1.8.57,3.13.93,4.57l1.38,5.17h4.3l4.51-14.7H58.23L57,73.49c-.33,1.69-.63,3.34-.84,5h-.06c-.3-1.69-.69-3.33-1.08-5l-1.47-5.86H49.9l-1.56,6c-.36,1.44-.78,3.13-1.08,4.81H47.2c-.24-1.69-.54-3.31-.84-4.84l-1.17-6H40.52l4.27,14.7h4.3Z"/><path class="cls-2" d="M80.35,73.48c-.34,1.69-.63,3.34-.84,5h-.06c-.3-1.69-.69-3.33-1.08-5l-1.48-5.86H73.28l-1.56,6c-.36,1.44-.78,3.13-1.08,4.81h-.06c-.24-1.69-.54-3.31-.84-4.84l-1.17-6H63.91l4.27,14.7h4.3l1.47-5.17a34.49,34.49,0,0,0,1-4.57H75c.3,1.8.57,3.13.93,4.57l1.38,5.17h4.3l4.5-14.7H81.61Z"/><path class="cls-2" d="M103.75,73.48c-.33,1.69-.63,3.34-.84,5h-.06c-.3-1.69-.69-3.33-1.08-5l-1.47-5.86H96.68l-1.57,6c-.36,1.44-.78,3.13-1.08,4.81H94c-.24-1.69-.54-3.31-.84-4.84l-1.17-6H87.29l4.28,14.7h4.29l1.48-5.17a34.86,34.86,0,0,0,1-4.57h.06c.3,1.8.57,3.13.93,4.57l1.38,5.17H105l4.51-14.7H105Z"/></g></g></svg>