<svg xmlns="http://www.w3.org/2000/svg" width="18" height="18" viewBox="0 0 18 18">
  <path id="www" d="M18,6.961v2.5a1.651,1.651,0,0,1-2.6,1.351,1.651,1.651,0,0,1-2.6-1.351v-2.5H14.2v2.5a.246.246,0,0,0,.492,0v-2.5H16.1v2.5a.246.246,0,0,0,.492,0v-2.5ZM2.6,10.808A1.651,1.651,0,0,0,5.2,9.457v-2.5H3.8v2.5a.246.246,0,1,1-.492,0v-2.5H1.9v2.5a.246.246,0,1,1-.492,0v-2.5H0v2.5a1.651,1.651,0,0,0,2.6,1.351ZM6.469,6.961v2.5a1.651,1.651,0,0,0,2.6,1.351,1.651,1.651,0,0,0,2.6-1.351v-2.5H10.266v2.5a.246.246,0,1,1-.492,0v-2.5H8.367v2.5a.246.246,0,1,1-.492,0v-2.5ZM17.441,5.555H.63L1.24,4.5a9,9,0,0,1,15.59,0ZM6.421,4.148H8.332V1.586A4.748,4.748,0,0,0,6.421,4.148Zm3.317,0h1.911A4.748,4.748,0,0,0,9.738,1.586Zm-6.544,0H4.925A9.438,9.438,0,0,1,5.875,2.1,7.639,7.639,0,0,0,3.194,4.148Zm11.682,0A7.639,7.639,0,0,0,12.2,2.1a9.438,9.438,0,0,1,.95,2.049ZM.629,12.445H17.441L16.83,13.5a9,9,0,0,1-15.59,0Zm11.02,1.406H9.738v2.563A4.748,4.748,0,0,0,11.649,13.851Zm-3.317,0H6.421a4.748,4.748,0,0,0,1.911,2.563Zm6.544,0H13.145A9.431,9.431,0,0,1,12.2,15.9,7.64,7.64,0,0,0,14.876,13.851Zm-11.682,0A7.639,7.639,0,0,0,5.875,15.9a9.431,9.431,0,0,1-.95-2.049Zm0,0" fill="#7da5c6"/>
</svg>
