<svg xmlns="http://www.w3.org/2000/svg" viewBox="0 0 150 150"><defs><style>.cls-1{fill:#fff;}.cls-2{fill:#e02f2f;}</style></defs><title>youtube</title><g id="Слой_2" data-name="Слой 2"><g id="Слой_1-2" data-name="Слой 1"><circle class="cls-1" cx="75" cy="75" r="75"/><path class="cls-2" d="M109.25,54.86c-2-3.54-4.15-4.19-8.55-4.44S85.26,50,75.69,50s-20.64.12-25,.42-6.55.9-8.56,4.44S39,64.48,39,75.2h0c0,10.67,1.05,16.81,3.1,20.31s4.17,4.18,8.56,4.48,15.44.41,25,.41,20.62-.15,25-.4,6.56-.94,8.55-4.48,3.11-9.63,3.11-20.31v0h0C112.36,64.48,111.32,58.4,109.25,54.86ZM66.51,89V61.46L89.44,75.22Z"/></g></g></svg>